<svg width="20" height="22" fill="none" xmlns="http://www.w3.org/2000/svg"><path d="M5.57 20.974v-3.5h3l-3 3.5z" fill="#1B3ACD"/><path d="M17.35 2.588C16.848 2.115 14.825.61 10.308.59c0 0-5.32-.332-7.918 2.105C.948 4.176.437 6.34.386 9.026.336 11.71.265 16.738 5 18.103h.006v2.08s-.032.842.51 1.014c.658.211 1.04-.433 1.666-1.122.344-.377.817-.938 1.174-1.36 3.241.281 5.73-.357 6.01-.452.657-.217 4.351-.702 4.957-5.73.62-5.187-.306-8.466-1.971-9.946zm.562 9.57c-.51 4.198-3.509 4.466-4.064 4.644-.236.077-2.424.632-5.174.454l-2.98 3.304v-3.808l-.025-.007c-4.007-1.142-3.873-5.41-3.828-7.65.044-2.24.46-4.077 1.678-5.314 2.195-2.036 6.718-1.73 6.718-1.73 3.822.02 5.646 1.194 6.074 1.59 1.41 1.23 2.125 4.185 1.601 8.517zm-3.285 1.627v.006a4.318 4.318 0 01-.81 1.027l-.007.007c-.447.383-.88.497-1.295.363-1.614-.65-3.248-1.588-4.76-3.158-1.525-1.588-2.552-3.369-3.081-5.046l-.051-.243c-.103-.606.274-1.014 1.32-1.723l.02-.012c.363-.224.727-.115.956.083.217.153.823.957.823.957.122.178.957 1.212.76 1.703-.064.287-.555.58-.817.83l-.02.019c-.114.185-.159.312-.12.587l.012.044c.14.664.524 1.308 1.155 1.92.625.607 1.244.97 1.819 1.117.082.02.389.058.586-.197l.39-.505c.185-.248.644-.408 1.09-.153.25.14.696.428.97.638.294.224.9.74.906.74.281.243.345.607.154.996zm-4.052-6.38c.472.025.836.172 1.085.44s.389.65.415 1.148c0 .07-.051.128-.115.128h-.007a.124.124 0 01-.12-.115c-.02-.434-.141-.766-.345-.989-.211-.223-.524-.344-.926-.364a.13.13 0 01-.114-.127c.006-.077.057-.128.127-.121zm2.45 1.997c.02-.83-.223-1.538-.72-2.093a2.582 2.582 0 00-.894-.65 3.76 3.76 0 00-1.206-.288.122.122 0 01-.108-.134c.006-.07.064-.121.127-.115.964.07 1.723.415 2.259 1.015.542.606.804 1.365.785 2.265a.12.12 0 01-.122.12.117.117 0 01-.12-.12zm-3.337-4.39c0-.07.058-.121.122-.121 1.32.013 2.437.466 3.324 1.352.446.447.784.977 1.008 1.59.223.605.338 1.3.344 2.066 0 .07-.05.122-.121.122a.126.126 0 01-.121-.122c-.007-.733-.115-1.403-.332-1.978a4.106 4.106 0 00-.957-1.499c-.421-.421-.9-.74-1.423-.95a4.642 4.642 0 00-1.735-.326.127.127 0 01-.109-.134z" fill="#fff"/></svg>