<svg width="18" height="18" fill="none" xmlns="http://www.w3.org/2000/svg"><path fill-rule="evenodd" clip-rule="evenodd" d="M8.997.75C4.455.75.77 4.423.77 8.95c0 1.553.431 2.999 1.182 4.238l-1.484 4.4L5.02 16.13a8.256 8.256 0 003.977 1.022c4.543 0 8.228-3.674 8.228-8.201C17.231 4.423 13.545.75 8.997.75zm0 15.101a6.899 6.899 0 01-3.808-1.139l-2.661.849.863-2.563a6.842 6.842 0 01-1.317-4.042c0-3.801 3.103-6.894 6.918-6.894 3.814 0 6.917 3.093 6.917 6.894.011 3.802-3.092 6.895-6.912 6.895zm4.156-5.008c.05.084.05.486-.117.955-.168.469-.992.921-1.361.955-.37.033-.37.301-2.42-.503S5.91 9.347 5.81 9.213c-.1-.134-.823-1.088-.823-2.076 0-.989.52-1.474.706-1.675a.742.742 0 01.537-.252c.135 0 .27.017.387.017.117 0 .285-.067.453.335.169.402.572 1.39.622 1.49.05.101.084.218.017.352-.067.134-.1.218-.202.335-.1.118-.212.263-.302.352-.1.1-.207.207-.09.408.118.2.521.86 1.12 1.39.773.686 1.423.899 1.625.999.202.1.32.084.437-.05.117-.134.504-.586.638-.787.135-.201.27-.168.454-.1.185.066 1.176.552 1.378.652.201.106.336.157.386.24z" fill="#1B3ACD"/></svg>