<svg width="16" height="10" viewBox="0 0 16 10" fill="none" xmlns="http://www.w3.org/2000/svg">
<path d="M13.6133 4.24698L0.770564 4.24698C0.344993 4.24698 0 4.58618 0 5.0046C0 5.42302 0.344993 5.76222 0.770564 5.76222L13.6133 5.76222C14.0389 5.76222 14.3839 5.42302 14.3839 5.0046C14.3839 4.58618 14.0389 4.24698 13.6133 4.24698Z" fill="#828282"/>
<path d="M13.7619 5.53578C14.0628 5.83165 14.5507 5.83165 14.8516 5.53578C15.1525 5.23991 15.1525 4.76021 14.8516 4.46434L10.8559 0.535727C10.555 0.239857 10.0671 0.239857 9.76615 0.535727C9.46523 0.831597 9.46523 1.3113 9.76615 1.60717L13.7619 5.53578Z" fill="#828282"/>
<path d="M9.76568 8.39284C9.46475 8.68871 9.46475 9.16841 9.76568 9.46428C10.0666 9.76015 10.5545 9.76015 10.8554 9.46428L14.8511 5.53566C15.1521 5.23979 15.1521 4.76009 14.8511 4.46422C14.5502 4.16835 14.0623 4.16835 13.7614 4.46422L9.76568 8.39284Z" fill="#828282"/>
</svg>
