<svg width="34" height="25" viewBox="0 0 34 25" fill="none" xmlns="http://www.w3.org/2000/svg">
<path d="M16.1189 10.7168C16.3724 10.8921 16.6731 10.9859 16.981 10.9859C17.289 10.9859 17.5897 10.8921 17.8432 10.7168L32.281 0.766683C31.5742 0.257488 30.723 -0.0111192 29.8525 0.000352756H4.10962C3.26528 0.000743161 2.44198 0.264316 1.75391 0.754519L16.1189 10.7168Z" fill="#1B3ACD"/>
<path d="M19.2221 12.7238C18.5621 13.1756 17.7812 13.4174 16.9818 13.4174C16.1823 13.4174 15.4015 13.1756 14.7414 12.7238L0.267143 2.68848C0.0937333 3.14302 0.00324853 3.62507 0 4.11166V20.2289C0.00321427 21.3172 0.437047 22.3599 1.2064 23.1283C1.97576 23.8967 3.01786 24.3282 4.10429 24.3282H29.9079C30.9922 24.325 32.0312 23.8921 32.7979 23.124C33.5646 22.3559 33.9968 21.3151 34 20.2289V4.11166C33.9978 3.63399 33.9114 3.16045 33.745 2.7128L19.2221 12.7238Z" fill="#1B3ACD"/>
</svg>
